# xmcd CD database file
#
# Track frame offsets:
#	150
#	15717
#	27840
#	45845
#	60530
#	84240
#	99945
#	116837
#	134882
#	144122
#	173717
#	214630
#
# Disc length: 3011 seconds
#
# Revision: 1
# Processed by: cddbd v1.5.1PL0 Copyright (c) Steve Scherf et al.
# Submitted via: CDex 1.51
#
DISCID=940bc10c
DTITLE=The Crown - THE BURNING
DYEAR=1995
DGENRE=Heavy Metal
TTITLE0=Of Good and Evil
TTITLE1=Soulicide Demon-might
TTITLE2=Godless
TTITLE3=The Lord of the Rings
TTITLE4=I Crawl
TTITLE5=Forever Heaven Gone
TTITLE6=Earthborn
TTITLE7=Neverending Dream
TTITLE8=Night of the Swords
TTITLE9=Candles
TTITLE10=Forget the Light
TTITLE11=Of Good and Evil(Video)
EXTD=YEAR: 1995
EXTT0=
EXTT1=
EXTT2=
EXTT3=
EXTT4=
EXTT5=
EXTT6=
EXTT7=
EXTT8=
EXTT9=
EXTT10=
EXTT11=
PLAYORDER=
